<svg xmlns="http://www.w3.org/2000/svg" width="25" height="23" viewBox="0 0 25 23"><g><g><path fill="#c3cbce" d="M12.262 17.41c-.468 0-.965-.028-1.462-.072a.899.899 0 0 0-.511.102l-5.115 2.748.657-3.756a.869.869 0 0 0-.394-.892c-2.353-1.505-3.698-3.668-3.698-5.963 0-4.326 4.72-7.848 10.508-7.848 5.788 0 10.509 3.522 10.509 7.848 0 4.326-4.707 7.834-10.494 7.834zm0-17.435C5.495-.025 0 4.287 0 9.577c0 2.733 1.461 5.29 4.02 7.118l-.878 4.983a.857.857 0 0 0 .351.863c.146.117.336.16.512.16.146 0 .292-.029.409-.102l6.474-3.478c.468.044.92.058 1.374.058 6.767 0 12.262-4.311 12.262-9.602 0-5.29-5.495-9.602-12.262-9.602z"/></g></g></svg>